<svg height="420pt" viewBox="0 -10 420 420" width="420pt" xmlns="http://www.w3.org/2000/svg"><path d="m250 42.09375c3.867188 0 7-3.132812 7-7v-28.09375c0-3.867188-3.132812-7-7-7s-7 3.132812-7 7v28.09375c0 3.867188 3.132812 7 7 7zm0 0"/><path d="m320.898438 71.1875c1.859374.003906 3.640624-.734375 4.953124-2.050781l19.398438-19.398438c2.734375-2.734375 2.734375-7.167969 0-9.898437-2.734375-2.734375-7.164062-2.734375-9.898438 0l-19.402343 19.398437c-2 2-2.597657 5.011719-1.515625 7.628907 1.085937 2.613281 3.636718 4.320312 6.46875 4.320312zm0 0"/><path d="m174.148438 69.136719c2.734374 2.734375 7.167968 2.734375 9.902343 0s2.734375-7.164063 0-9.898438l-19.402343-19.398437c-2.730469-2.734375-7.164063-2.734375-9.898438 0-2.734375 2.730468-2.734375 7.164062 0 9.898437zm0 0"/><path d="m257.046875 157.078125c0-3.890625-3.15625-7.046875-7.046875-7.046875s-7.046875 3.15625-7.046875 7.046875 3.15625 7.046875 7.046875 7.046875c3.890625-.003906 7.042969-3.15625 7.046875-7.046875zm0 0"/><path d="m239.011719 268.972656h21.976562c7.214844-.085937 13.109375-5.789062 13.425781-13h-48.828124c.316406 7.210938 6.210937 12.914063 13.425781 13zm0 0"/><path d="m226 230.972656h48v11h-48zm0 0"/><path d="m220.644531 196.179688c3.136719.757812 5.351563 3.566406 5.355469 6.792968v14h17v-40.070312c-9.667969-3.410156-15.472656-13.292969-13.746094-23.398438 1.730469-10.105468 10.492188-17.496094 20.746094-17.496094s19.015625 7.390626 20.746094 17.496094c1.726562 10.105469-4.078125 19.988282-13.746094 23.398438v40.070312h17v-14c.003906-3.230468 2.21875-6.042968 5.363281-6.796875 26.78125-13.585937 40.742188-43.769531 33.761719-72.976562-6.984375-29.203125-33.09375-49.804688-63.121094-49.804688-30.03125 0-56.136718 20.601563-63.121094 49.804688-6.984374 29.207031 6.980469 59.390625 33.761719 72.976562zm0 0"/><path d="m52.460938 399.972656h334.230468c18.292969-.03125 33.148438-14.785156 33.308594-33.078125v-224.464843c-.113281-18.132813-14.746094-32.820313-32.875-33l-63.949219-.5c14.90625 37.007812-.199219 79.320312-35.175781 98.523437v47.890625c0 15.128906-11.875 27.628906-27.011719 27.628906h-21.976562c-15.136719 0-27.011719-12.5-27.011719-27.628906v-47.90625c-35.324219-19.476562-50.300781-62.433594-34.742188-99.648438l-79.257812-.621093v142.894531c0 24.96875-20.449219 44.910156-45.421875 44.910156h-.058594c-26.882812 0-49.519531 20.746094-52.519531 46.941406v2.058594h.136719c-.0820315 1-.136719 2.335938-.136719 3.53125v.121094c.136719 28.898438 23.5625 52.273438 52.460938 52.347656zm299.207031-271h27.757812c3.863281 0 7 3.136719 7 7 0 3.867188-3.136719 7-7 7h-27.757812c-3.867188 0-7-3.132812-7-7 0-3.863281 3.132812-7 7-7zm-231.09375 0h27.757812c3.867188 0 7 3.136719 7 7 0 3.867188-3.132812 7-7 7h-27.757812c-3.863281 0-7-3.132812-7-7 0-3.863281 3.136719-7 7-7zm0 0"/><path d="m52.515625 280.972656h.070313c17.242187 0 31.414062-13.660156 31.414062-30.914062v-181.417969c-.035156-17.320313-14.035156-31.375-31.355469-31.476563-.027343 0-.152343-.191406-.175781-.191406h-.007812c-28.894532.078125-52.316407 23.445313-52.460938 52.339844v217.191406c13-15.511718 31.441406-25.53125 52.515625-25.53125zm0 0"/></svg>